<?xml version="1.0" encoding="utf-8"?>
<!-- Generator: Adobe Illustrator 21.0.0, SVG Export Plug-In . SVG Version: 6.00 Build 0)  -->
<svg version="1.1" id="Layer_1" xmlns="http://www.w3.org/2000/svg" xmlns:xlink="http://www.w3.org/1999/xlink" x="0px" y="0px"
	 viewBox="0 0 314.4 216" style="enable-background:new 0 0 314.4 216;" xml:space="preserve">
<style type="text/css">
	.st0{fill:none;stroke:#FFFFFF;stroke-miterlimit:10;}
	.st1{fill:none;}
</style>
<g>
	<path class="st0" d="M0,102c0-2,0-4,0-6c1.2,0,2.3,0,4,0c0-16.2,0-32.1,0-47.9c0.2-0.1,0.5-0.1,0.7-0.2C11.6,58.4,18.6,69,25.9,80
		C33.2,68.8,40.1,58.2,47,47.6c0.2,0,0.4,0.1,0.5,0.1c0,16,0,32,0,48.1c1.5,0,2.7,0,3.8,0c0-18.4,0-36.6,0-54.9c-1.7,0-3.2,0-4.7,0
		C39.8,51.5,32.9,62.1,25.8,73C18.6,62,11.6,51.4,4.6,40.8c-1.6,0-3.1,0-4.6,0C0,27.2,0,13.6,0,0c48.4,0,96.8,0,145.2,0
		c0,12,0,23.9,0,35.8c1.8,0,3.1,0,4.9,0c0-10.4,0-20.6,0-30.8c53.3,0,106.2,0,159.4,0c0,68.8,0,137.3,0,206c-53.2,0-106.2,0-159.6,0
		c0-10.4,0-20.7,0-30.8c-1.7,0-3.1,0-4.6,0c0,12.1,0,23.9,0,35.8c-48.4,0-96.8,0-145.2,0c0-14,0-28,0-42c1.7,0,3.3,0,5.3,0
		c0-9.4,0-18.4,0-27.5c6.7,0,13,0,19.5,0c8.3,9.1,16.6,18.2,24.9,27.3c2.1,0,4.2,0,6.9,0c-8.4-9.2-16.5-18.1-24.9-27.2
		c2.6-0.4,4.8-0.5,6.9-1c8.8-2.1,14.8-8.8,16-17.7c1.2-9-3-18-10.2-22.4c-4.4-2.7-9.3-3.4-14.3-3.5C20,102,10,102,0,102z
		 M153.7,173.9c0-21.2,0-42.2,0-63.2c0.2-0.1,0.4-0.1,0.6-0.2c9.1,13.8,18.2,27.6,27.7,42.1c1.1-1.1,2.2-1.9,2.9-2.9
		c8-12.1,15.9-24.3,23.8-36.5c0.5-0.8,1.1-1.4,1.6-2.2c0.2,0.1,0.4,0.1,0.6,0.2c0,20.8,0,41.7,0,62.6c1.8,0,3.3,0,4.9,0
		c0-23.9,0-47.8,0-71.7c-2.2,0-4.2,0-6.2,0c-9,13.8-18,27.7-27.2,41.9c-9.4-14.4-18.5-28.2-27.5-41.9c-2.2,0-4.1,0-6.1,0
		c0,24,0,47.8,0,71.7C150.4,173.9,151.8,173.9,153.7,173.9z M135.1,137.2c-0.2-1.8-0.3-4.4-0.8-6.9c-2-10.3-6.6-18.8-16-24.2
		c-8.6-5-17.8-6-27.3-4.3c-8.2,1.5-15.1,5.3-20.3,12c-4.3,5.6-6.5,11.9-7.3,18.9c-1.2,10.1,0.6,19.5,6.3,27.8
		c5.9,8.6,14.3,13,24.7,14.2c8.3,0.9,16.2-0.2,23.3-4.4C129.9,163.1,134.7,151.7,135.1,137.2z M281.2,156.2c2.6,5.9,5.3,11.8,8,17.6
		c1.9,0,3.6,0,5.7,0c-10.8-24.1-21.4-47.9-32-71.7c-2.1,0-4,0-6,0c-10.7,23.9-21.3,47.6-32,71.6c2.2,0,3.9,0,5.7,0
		c2.6-5.9,5.3-11.8,7.8-17.6C252.7,156.2,266.7,156.2,281.2,156.2z M208.7,80c7.3-11.2,14.2-21.8,21.1-32.3c0.2,0.1,0.4,0.1,0.7,0.2
		c0,16,0,32,0,48c1.5,0,2.7,0,3.9,0c0-18.4,0-36.6,0-54.9c-1.8,0-3.4,0-4.9,0c-6.9,10.7-13.8,21.2-20.9,32.1
		c-7.2-11-14.2-21.6-21.1-32.1c-1.6,0-3.1,0-4.8,0c0,18.4,0,36.6,0,54.9c1.4,0,2.5,0,3.9,0c0-16.1,0-32.1,0-48
		c0.2-0.1,0.4-0.2,0.6-0.3C194.3,58.1,201.3,68.7,208.7,80z M122.4,47.7c0.2-0.1,0.4-0.1,0.7-0.2c7,10.7,14.1,21.3,21.5,32.5
		c7.4-11.3,14.3-21.8,21.2-32.4c0.2,0.1,0.4,0.2,0.6,0.2c0,15.9,0,31.9,0,47.9c1.5,0,2.7,0,3.9,0c0-18.4,0-36.7,0-54.9
		c-1.8,0-3.4,0-4.9,0c-6.9,10.7-13.8,21.2-20.8,32.1c-7.2-11-14.2-21.6-21-32c-1.9,0-3.4,0-5,0c0,18.4,0,36.5,0,54.8
		c1.3,0,2.5,0,4,0C122.4,79.8,122.4,63.7,122.4,47.7z M265.8,40.9c-8.2,18.4-16.4,36.6-24.6,55c1.6,0,2.9,0,4.3,0
		c2-4.6,4.1-9.1,6-13.5c11.1,0,22.1,0,33,0c2.1,4.7,4.1,9.1,6.1,13.4c1.6,0,2.8,0,4.3,0c-8.3-18.5-16.4-36.7-24.5-54.9
		C268.7,40.9,267.4,40.9,265.8,40.9z M62.6,95.9c2.1-4.7,4.1-9.3,6.1-13.6c11.2,0,22,0,32.9,0c2,4.5,4.1,9,6.1,13.5
		c1.4,0,2.7,0,4.3,0c-8.3-18.5-16.5-36.8-24.6-55c-1.7,0-3.1,0-4.5,0c-8.2,18.3-16.3,36.6-24.6,55C59.9,95.9,61.1,95.9,62.6,95.9z"
		/>
	<path d="M145.2,216c0-11.9,0-23.8,0-35.8c1.6,0,2.9,0,4.6,0c0,10.2,0,20.4,0,30.8c53.4,0,106.4,0,159.6,0c0-68.7,0-137.2,0-206
		c-53.1,0-106.1,0-159.4,0c0,10.2,0,20.4,0,30.8c-1.7,0-3.1,0-4.9,0c0-11.9,0-23.9,0-35.8C201.6,0,258,0,314.4,0c0,72,0,144,0,216
		C258,216,201.6,216,145.2,216z"/>
	<path d="M0,102c10,0,20,0,30,0.1c5,0.1,9.8,0.8,14.3,3.5c7.2,4.4,11.4,13.3,10.2,22.4c-1.2,8.8-7.2,15.6-16,17.7
		c-2.1,0.5-4.3,0.6-6.9,1c8.3,9.1,16.4,18,24.9,27.2c-2.7,0-4.9,0-6.9,0c-8.3-9.1-16.6-18.2-24.9-27.3c-6.4,0-12.8,0-19.5,0
		c0,9.1,0,18,0,27.5c-2,0-3.6,0-5.3,0C0,150,0,126,0,102z M5.4,107.4c0,11.3,0,22.7,0,34.1c9.3,0,18.4,0.4,27.5-0.2
		c3.5-0.2,7.4-1.9,10.3-3.9c5.1-3.5,5.7-9.2,5.4-15c-0.4-7.3-6-14.5-13.1-14.9C25.6,107,15.6,107.4,5.4,107.4z"/>
	<path d="M0,40.8c1.5,0,3,0,4.6,0C11.6,51.4,18.6,62,25.8,73c7.1-10.9,14-21.5,20.9-32.2c1.6,0,3.1,0,4.7,0c0,18.3,0,36.5,0,54.9
		c-1.2,0-2.3,0-3.8,0c0-16.1,0-32.1,0-48.1c-0.2,0-0.4-0.1-0.5-0.1C40.1,58.2,33.2,68.8,25.9,80C18.6,69,11.6,58.4,4.7,47.9
		C4.4,47.9,4.2,48,4,48.1C4,63.9,4,79.8,4,96c-1.6,0-2.8,0-4,0C0,77.6,0,59.2,0,40.8z"/>
	<path d="M153.7,173.9c-1.9,0-3.3,0-4.9,0c0-23.9,0-47.7,0-71.7c2.1,0,3.9,0,6.1,0c9,13.7,18,27.5,27.5,41.9
		c9.2-14.2,18.2-28.1,27.2-41.9c2.1,0,4,0,6.2,0c0,23.9,0,47.7,0,71.7c-1.6,0-3,0-4.9,0c0-20.9,0-41.7,0-62.6
		c-0.2-0.1-0.4-0.1-0.6-0.2c-0.6,0.7-1.2,1.4-1.6,2.2c-7.9,12.2-15.8,24.3-23.8,36.5c-0.7,1-1.7,1.8-2.9,2.9
		c-9.5-14.5-18.6-28.3-27.7-42.1c-0.2,0.1-0.4,0.1-0.6,0.2C153.7,131.6,153.7,152.6,153.7,173.9z"/>
	<path d="M135.1,137.2c-0.4,14.5-5.2,25.9-17.4,33.1c-7.1,4.2-15,5.3-23.3,4.4c-10.4-1.1-18.8-5.6-24.7-14.2
		c-5.7-8.3-7.6-17.7-6.3-27.8c0.9-7,3.1-13.3,7.3-18.9c5.1-6.7,12.1-10.5,20.3-12c9.6-1.8,18.8-0.7,27.3,4.3
		c9.4,5.4,14,13.9,16,24.2C134.8,132.8,134.9,135.4,135.1,137.2z M99.1,106.1c-7.5-0.1-14.4,1.7-20.2,6.7
		c-9.8,8.6-12.1,19.9-9.9,32.1c4.7,25.5,30.6,30.4,46.5,20.8c12.2-7.3,16.2-21.2,13.8-34.4C126.6,115.2,115.1,106,99.1,106.1z"/>
	<path d="M281.2,156.2c-14.4,0-28.5,0-42.9,0c-2.6,5.8-5.2,11.7-7.8,17.6c-1.8,0-3.4,0-5.7,0c10.7-24,21.3-47.7,32-71.6
		c2,0,3.8,0,6,0c10.6,23.7,21.3,47.6,32,71.7c-2.1,0-3.8,0-5.7,0C286.5,168,283.8,162.1,281.2,156.2z M279.1,151.1
		c-6.4-14.5-12.7-28.9-19.3-43.9c-6.6,15-12.9,29.3-19.3,43.9C253.5,151.1,266.1,151.1,279.1,151.1z"/>
	<path d="M208.7,80c-7.4-11.3-14.4-21.9-21.4-32.5c-0.2,0.1-0.4,0.2-0.6,0.3c0,15.9,0,31.9,0,48c-1.4,0-2.5,0-3.9,0
		c0-18.3,0-36.5,0-54.9c1.7,0,3.1,0,4.8,0c6.9,10.5,13.8,21.1,21.1,32.1c7.1-10.9,14-21.5,20.9-32.1c1.5,0,3.1,0,4.9,0
		c0,18.3,0,36.5,0,54.9c-1.2,0-2.4,0-3.9,0c0-15.9,0-31.9,0-48c-0.2-0.1-0.4-0.1-0.7-0.2C223,58.2,216.1,68.8,208.7,80z"/>
	<path d="M122.4,47.7c0,16,0,32,0,48.1c-1.5,0-2.6,0-4,0c0-18.3,0-36.4,0-54.8c1.6,0,3.1,0,5,0c6.8,10.4,13.8,21,21,32
		c7.1-10.9,13.9-21.4,20.8-32.1c1.5,0,3.1,0,4.9,0c0,18.2,0,36.4,0,54.9c-1.2,0-2.4,0-3.9,0c0-16,0-32,0-47.9
		c-0.2-0.1-0.4-0.2-0.6-0.2c-6.9,10.6-13.8,21.1-21.2,32.4c-7.4-11.2-14.4-21.9-21.5-32.5C122.8,47.6,122.6,47.6,122.4,47.7z"/>
	<path d="M265.8,40.9c1.6,0,2.9,0,4.5,0c8.1,18.1,16.3,36.4,24.5,54.9c-1.5,0-2.7,0-4.3,0c-1.9-4.2-3.9-8.7-6.1-13.4
		c-10.9,0-21.9,0-33,0c-2,4.4-4,8.9-6,13.5c-1.4,0-2.7,0-4.3,0C249.4,77.5,257.5,59.3,265.8,40.9z M282.8,78.5
		c-5-11.3-9.8-22.3-14.9-33.8c-5.1,11.5-9.9,22.5-14.9,33.8C263.1,78.5,272.7,78.5,282.8,78.5z"/>
	<path d="M62.6,95.9c-1.5,0-2.7,0-4.3,0c8.2-18.4,16.4-36.7,24.6-55c1.4,0,2.8,0,4.5,0c8.1,18.1,16.3,36.4,24.6,55
		c-1.6,0-2.9,0-4.3,0c-2-4.5-4-9-6.1-13.5c-10.9,0-21.7,0-32.9,0C66.7,86.7,64.7,91.2,62.6,95.9z M85.1,44.7
		c-5.1,11.7-10,22.7-14.8,33.7c10,0,19.6,0,29.7,0C95,67.1,90.2,56.2,85.1,44.7z"/>
	<path class="st1" d="M5.4,107.4c10.2,0,20.2-0.4,30.1,0.2c7.1,0.4,12.7,7.5,13.1,14.9c0.3,5.8-0.3,11.5-5.4,15
		c-3,2.1-6.8,3.7-10.3,3.9c-9,0.5-18.1,0.2-27.5,0.2C5.4,130.1,5.4,118.8,5.4,107.4z"/>
	<path class="st1" d="M99.1,106.1c16-0.1,27.5,9.1,30.3,25.2c2.3,13.2-1.7,27.1-13.8,34.4c-16,9.6-41.8,4.8-46.5-20.8
		c-2.2-12.2,0.1-23.5,9.9-32.1C84.7,107.7,91.6,106,99.1,106.1z"/>
	<path class="st1" d="M279.1,151.1c-13,0-25.6,0-38.6,0c6.4-14.6,12.7-28.8,19.3-43.9C266.4,122.2,272.7,136.5,279.1,151.1z"/>
	<path class="st1" d="M282.8,78.5c-10.1,0-19.7,0-29.7,0c5-11.3,9.8-22.3,14.9-33.8C273,56.1,277.8,67.2,282.8,78.5z"/>
	<path class="st1" d="M85.1,44.7C90.2,56.2,95,67.1,100,78.4c-10.1,0-19.7,0-29.7,0C75.1,67.4,80,56.4,85.1,44.7z"/>
</g>
</svg>
